<mxfile host="app.diagrams.net" agent="Mozilla/5.0 (Macintosh; Intel Mac OS X 10_15_7) AppleWebKit/537.36 (KHTML, like Gecko) Chrome/131.0.0.0 Safari/537.36" version="25.0.3">
  <diagram name="Page-1" id="UNE2q50TRzG1qSvNbZYL">
    <mxGraphModel dx="2033" dy="780" grid="1" gridSize="10" guides="1" tooltips="1" connect="1" arrows="1" fold="1" page="1" pageScale="1" pageWidth="850" pageHeight="1100" math="1" shadow="0">
      <root>
        <mxCell id="0" />
        <mxCell id="1" parent="0" />
        <mxCell id="BcOn8-lLCD1ZlD0IBxxJ-2" value="" style="rounded=0;whiteSpace=wrap;html=1;fillColor=#dae8fc;strokeColor=#6c8ebf;" vertex="1" parent="1">
          <mxGeometry x="35" y="200" width="1225" height="260" as="geometry" />
        </mxCell>
        <mxCell id="BcOn8-lLCD1ZlD0IBxxJ-50" value="" style="rounded=0;whiteSpace=wrap;html=1;fillColor=#0066CC;strokeColor=#6c8ebf;opacity=30;" vertex="1" parent="1">
          <mxGeometry x="150" y="370" width="1070" height="70" as="geometry" />
        </mxCell>
        <mxCell id="BcOn8-lLCD1ZlD0IBxxJ-1" value="" style="rounded=0;whiteSpace=wrap;html=1;fillColor=#f5f5f5;strokeColor=#666666;fontColor=#333333;" vertex="1" parent="1">
          <mxGeometry x="35" y="30" width="1225" height="170" as="geometry" />
        </mxCell>
        <mxCell id="BcOn8-lLCD1ZlD0IBxxJ-3" value="" style="rounded=0;whiteSpace=wrap;html=1;fillColor=#3399FF;strokeColor=#6c8ebf;opacity=30;" vertex="1" parent="1">
          <mxGeometry x="150" y="210" width="1070" height="150" as="geometry" />
        </mxCell>
        <mxCell id="BcOn8-lLCD1ZlD0IBxxJ-4" value="&lt;font face=&quot;Times New Roman&quot;&gt;\(\rho_g\)&lt;/font&gt;" style="shape=parallelogram;perimeter=parallelogramPerimeter;whiteSpace=wrap;html=1;fixedSize=1;" vertex="1" parent="1">
          <mxGeometry x="40" y="90" width="100" height="30" as="geometry" />
        </mxCell>
        <mxCell id="BcOn8-lLCD1ZlD0IBxxJ-5" value="&lt;font face=&quot;Times New Roman&quot;&gt;\(T_g\)&lt;/font&gt;" style="shape=parallelogram;perimeter=parallelogramPerimeter;whiteSpace=wrap;html=1;fixedSize=1;" vertex="1" parent="1">
          <mxGeometry x="40" y="140" width="100" height="30" as="geometry" />
        </mxCell>
        <mxCell id="BcOn8-lLCD1ZlD0IBxxJ-6" value="&lt;font style=&quot;font-size: 10px;&quot; face=&quot;Courier New&quot;&gt;convert_profiles&lt;/font&gt;&lt;div&gt;&lt;font style=&quot;font-size: 10px;&quot; face=&quot;Courier New&quot;&gt;_to_fields&lt;/font&gt;&lt;/div&gt;" style="shape=process;whiteSpace=wrap;html=1;backgroundOutline=1;" vertex="1" parent="1">
          <mxGeometry x="170" y="70" width="150" height="110" as="geometry" />
        </mxCell>
        <mxCell id="BcOn8-lLCD1ZlD0IBxxJ-7" value="" style="endArrow=classic;html=1;rounded=0;exitX=1;exitY=0.5;exitDx=0;exitDy=0;entryX=-0.005;entryY=0.772;entryDx=0;entryDy=0;entryPerimeter=0;" edge="1" parent="1" source="BcOn8-lLCD1ZlD0IBxxJ-5" target="BcOn8-lLCD1ZlD0IBxxJ-6">
          <mxGeometry width="50" height="50" relative="1" as="geometry">
            <mxPoint x="130" y="170" as="sourcePoint" />
            <mxPoint x="180" y="120" as="targetPoint" />
          </mxGeometry>
        </mxCell>
        <mxCell id="BcOn8-lLCD1ZlD0IBxxJ-8" value="" style="endArrow=classic;html=1;rounded=0;exitX=1;exitY=0.5;exitDx=0;exitDy=0;entryX=-0.005;entryY=0.772;entryDx=0;entryDy=0;entryPerimeter=0;" edge="1" parent="1" source="BcOn8-lLCD1ZlD0IBxxJ-4">
          <mxGeometry width="50" height="50" relative="1" as="geometry">
            <mxPoint x="131" y="104.87" as="sourcePoint" />
            <mxPoint x="170" y="104.87" as="targetPoint" />
          </mxGeometry>
        </mxCell>
        <mxCell id="BcOn8-lLCD1ZlD0IBxxJ-9" value="" style="endArrow=classic;html=1;rounded=0;exitX=0.5;exitY=1;exitDx=0;exitDy=0;entryX=0.5;entryY=0;entryDx=0;entryDy=0;" edge="1" parent="1" source="BcOn8-lLCD1ZlD0IBxxJ-6" target="BcOn8-lLCD1ZlD0IBxxJ-12">
          <mxGeometry width="50" height="50" relative="1" as="geometry">
            <mxPoint x="260" y="260" as="sourcePoint" />
            <mxPoint x="275" y="220" as="targetPoint" />
          </mxGeometry>
        </mxCell>
        <mxCell id="BcOn8-lLCD1ZlD0IBxxJ-69" style="edgeStyle=orthogonalEdgeStyle;rounded=0;orthogonalLoop=1;jettySize=auto;html=1;entryX=0;entryY=0.25;entryDx=0;entryDy=0;" edge="1" parent="1" source="BcOn8-lLCD1ZlD0IBxxJ-11" target="BcOn8-lLCD1ZlD0IBxxJ-68">
          <mxGeometry relative="1" as="geometry">
            <Array as="points">
              <mxPoint x="210" y="235" />
              <mxPoint x="210" y="350" />
              <mxPoint x="900" y="350" />
              <mxPoint x="900" y="98" />
            </Array>
          </mxGeometry>
        </mxCell>
        <mxCell id="BcOn8-lLCD1ZlD0IBxxJ-11" value="\(\rho_g\)" style="rounded=0;whiteSpace=wrap;html=1;" vertex="1" parent="1">
          <mxGeometry x="170" y="220" width="20" height="30" as="geometry" />
        </mxCell>
        <mxCell id="BcOn8-lLCD1ZlD0IBxxJ-12" value="\(T_g\)" style="rounded=0;whiteSpace=wrap;html=1;" vertex="1" parent="1">
          <mxGeometry x="232.5" y="220" width="25" height="30" as="geometry" />
        </mxCell>
        <mxCell id="BcOn8-lLCD1ZlD0IBxxJ-70" style="edgeStyle=orthogonalEdgeStyle;rounded=0;orthogonalLoop=1;jettySize=auto;html=1;entryX=0;entryY=0.5;entryDx=0;entryDy=0;" edge="1" parent="1" source="BcOn8-lLCD1ZlD0IBxxJ-14" target="BcOn8-lLCD1ZlD0IBxxJ-68">
          <mxGeometry relative="1" as="geometry">
            <Array as="points">
              <mxPoint x="340" y="235" />
              <mxPoint x="340" y="340" />
              <mxPoint x="910" y="340" />
              <mxPoint x="910" y="125" />
            </Array>
          </mxGeometry>
        </mxCell>
        <mxCell id="BcOn8-lLCD1ZlD0IBxxJ-14" value="\(\rho_*\)" style="rounded=0;whiteSpace=wrap;html=1;" vertex="1" parent="1">
          <mxGeometry x="300" y="220" width="20" height="30" as="geometry" />
        </mxCell>
        <mxCell id="BcOn8-lLCD1ZlD0IBxxJ-15" value="" style="endArrow=classic;html=1;rounded=0;exitX=0.5;exitY=1;exitDx=0;exitDy=0;" edge="1" parent="1">
          <mxGeometry width="50" height="50" relative="1" as="geometry">
            <mxPoint x="179.76" y="180" as="sourcePoint" />
            <mxPoint x="179.76" y="220" as="targetPoint" />
          </mxGeometry>
        </mxCell>
        <mxCell id="BcOn8-lLCD1ZlD0IBxxJ-16" value="" style="endArrow=classic;html=1;rounded=0;exitX=0.5;exitY=1;exitDx=0;exitDy=0;" edge="1" parent="1">
          <mxGeometry width="50" height="50" relative="1" as="geometry">
            <mxPoint x="309.76" y="180" as="sourcePoint" />
            <mxPoint x="309.76" y="220" as="targetPoint" />
          </mxGeometry>
        </mxCell>
        <mxCell id="BcOn8-lLCD1ZlD0IBxxJ-17" value="&lt;font face=&quot;Courier New&quot;&gt;&lt;span style=&quot;font-size: 10px;&quot;&gt;solve_eos&lt;/span&gt;&lt;/font&gt;&lt;div&gt;&lt;font face=&quot;Courier New&quot;&gt;&lt;span style=&quot;font-size: 10px;&quot;&gt;&lt;br&gt;&lt;/span&gt;&lt;/font&gt;&lt;/div&gt;&lt;div&gt;&lt;font face=&quot;Courier New&quot;&gt;&lt;span style=&quot;font-size: 10px;&quot;&gt;\(P = f(\rho_g,T_g)\)&lt;/span&gt;&lt;/font&gt;&lt;/div&gt;" style="shape=process;whiteSpace=wrap;html=1;backgroundOutline=1;" vertex="1" parent="1">
          <mxGeometry x="370" y="70" width="100" height="110" as="geometry" />
        </mxCell>
        <mxCell id="BcOn8-lLCD1ZlD0IBxxJ-18" value="" style="endArrow=classic;html=1;rounded=0;exitX=1;exitY=0.5;exitDx=0;exitDy=0;entryX=0;entryY=0.75;entryDx=0;entryDy=0;" edge="1" parent="1" source="BcOn8-lLCD1ZlD0IBxxJ-11" target="BcOn8-lLCD1ZlD0IBxxJ-17">
          <mxGeometry width="50" height="50" relative="1" as="geometry">
            <mxPoint x="190" y="240" as="sourcePoint" />
            <mxPoint x="240" y="190" as="targetPoint" />
            <Array as="points">
              <mxPoint x="210" y="235" />
              <mxPoint x="210" y="190" />
              <mxPoint x="270" y="190" />
              <mxPoint x="330" y="190" />
              <mxPoint x="330" y="152" />
            </Array>
          </mxGeometry>
        </mxCell>
        <mxCell id="BcOn8-lLCD1ZlD0IBxxJ-19" value="" style="endArrow=classic;html=1;rounded=0;exitX=1;exitY=0.5;exitDx=0;exitDy=0;entryX=0.001;entryY=0.37;entryDx=0;entryDy=0;entryPerimeter=0;" edge="1" parent="1" target="BcOn8-lLCD1ZlD0IBxxJ-17">
          <mxGeometry width="50" height="50" relative="1" as="geometry">
            <mxPoint x="257.5" y="233" as="sourcePoint" />
            <mxPoint x="437.5" y="150" as="targetPoint" />
            <Array as="points">
              <mxPoint x="280" y="233" />
              <mxPoint x="280" y="210" />
              <mxPoint x="340" y="210" />
              <mxPoint x="340" y="110" />
            </Array>
          </mxGeometry>
        </mxCell>
        <mxCell id="BcOn8-lLCD1ZlD0IBxxJ-20" value="\(P\)" style="rounded=0;whiteSpace=wrap;html=1;" vertex="1" parent="1">
          <mxGeometry x="410" y="220" width="20" height="30" as="geometry" />
        </mxCell>
        <mxCell id="BcOn8-lLCD1ZlD0IBxxJ-21" value="" style="endArrow=classic;html=1;rounded=0;exitX=0.5;exitY=1;exitDx=0;exitDy=0;entryX=0.5;entryY=0;entryDx=0;entryDy=0;" edge="1" parent="1">
          <mxGeometry width="50" height="50" relative="1" as="geometry">
            <mxPoint x="419.77" y="180" as="sourcePoint" />
            <mxPoint x="419.77" y="220" as="targetPoint" />
          </mxGeometry>
        </mxCell>
        <mxCell id="BcOn8-lLCD1ZlD0IBxxJ-22" value="&lt;font face=&quot;Courier New&quot;&gt;&lt;span style=&quot;font-size: 10px;&quot;&gt;solve_hse&lt;/span&gt;&lt;/font&gt;&lt;div&gt;&lt;font face=&quot;Courier New&quot;&gt;&lt;span style=&quot;font-size: 10px;&quot;&gt;&lt;br&gt;&lt;/span&gt;&lt;/font&gt;&lt;/div&gt;&lt;div&gt;&lt;font face=&quot;Courier New&quot;&gt;&lt;span style=&quot;font-size: 10px;&quot;&gt;\(\frac{\nabla P}{\rho} = \nabla \Phi\)&lt;/span&gt;&lt;/font&gt;&lt;/div&gt;" style="shape=process;whiteSpace=wrap;html=1;backgroundOutline=1;" vertex="1" parent="1">
          <mxGeometry x="510" y="70" width="100" height="110" as="geometry" />
        </mxCell>
        <mxCell id="BcOn8-lLCD1ZlD0IBxxJ-24" value="\(\nabla \Phi\)" style="rounded=0;whiteSpace=wrap;html=1;" vertex="1" parent="1">
          <mxGeometry x="510" y="380" width="30" height="30" as="geometry" />
        </mxCell>
        <mxCell id="BcOn8-lLCD1ZlD0IBxxJ-58" style="edgeStyle=orthogonalEdgeStyle;rounded=0;orthogonalLoop=1;jettySize=auto;html=1;entryX=0;entryY=0.5;entryDx=0;entryDy=0;" edge="1" parent="1" source="BcOn8-lLCD1ZlD0IBxxJ-25" target="BcOn8-lLCD1ZlD0IBxxJ-56">
          <mxGeometry relative="1" as="geometry">
            <Array as="points">
              <mxPoint x="620" y="235" />
              <mxPoint x="620" y="125" />
            </Array>
          </mxGeometry>
        </mxCell>
        <mxCell id="BcOn8-lLCD1ZlD0IBxxJ-25" value="\(\Phi\)" style="rounded=0;whiteSpace=wrap;html=1;" vertex="1" parent="1">
          <mxGeometry x="590" y="220" width="20" height="30" as="geometry" />
        </mxCell>
        <mxCell id="BcOn8-lLCD1ZlD0IBxxJ-26" value="" style="endArrow=classic;html=1;rounded=0;exitX=0.5;exitY=1;exitDx=0;exitDy=0;entryX=0.5;entryY=0;entryDx=0;entryDy=0;" edge="1" parent="1" target="BcOn8-lLCD1ZlD0IBxxJ-24">
          <mxGeometry width="50" height="50" relative="1" as="geometry">
            <mxPoint x="524.77" y="180" as="sourcePoint" />
            <mxPoint x="524.77" y="220" as="targetPoint" />
          </mxGeometry>
        </mxCell>
        <mxCell id="BcOn8-lLCD1ZlD0IBxxJ-27" value="" style="endArrow=classic;html=1;rounded=0;exitX=0.5;exitY=1;exitDx=0;exitDy=0;entryX=0.5;entryY=0;entryDx=0;entryDy=0;" edge="1" parent="1">
          <mxGeometry width="50" height="50" relative="1" as="geometry">
            <mxPoint x="599.77" y="180" as="sourcePoint" />
            <mxPoint x="599.77" y="220" as="targetPoint" />
          </mxGeometry>
        </mxCell>
        <mxCell id="BcOn8-lLCD1ZlD0IBxxJ-28" value="" style="endArrow=classic;html=1;rounded=0;exitX=1;exitY=0.5;exitDx=0;exitDy=0;entryX=0;entryY=0.5;entryDx=0;entryDy=0;" edge="1" parent="1" target="BcOn8-lLCD1ZlD0IBxxJ-22">
          <mxGeometry width="50" height="50" relative="1" as="geometry">
            <mxPoint x="429.9999999999999" y="240" as="sourcePoint" />
            <mxPoint x="490" y="130" as="targetPoint" />
            <Array as="points">
              <mxPoint x="440" y="240" />
              <mxPoint x="440" y="190" />
              <mxPoint x="460" y="190" />
              <mxPoint x="480" y="190" />
              <mxPoint x="480" y="125" />
            </Array>
          </mxGeometry>
        </mxCell>
        <mxCell id="BcOn8-lLCD1ZlD0IBxxJ-73" style="edgeStyle=orthogonalEdgeStyle;rounded=0;orthogonalLoop=1;jettySize=auto;html=1;entryX=0;entryY=0.25;entryDx=0;entryDy=0;" edge="1" parent="1" source="BcOn8-lLCD1ZlD0IBxxJ-32" target="BcOn8-lLCD1ZlD0IBxxJ-72">
          <mxGeometry relative="1" as="geometry">
            <Array as="points">
              <mxPoint x="180" y="330" />
              <mxPoint x="1070" y="330" />
              <mxPoint x="1070" y="98" />
            </Array>
          </mxGeometry>
        </mxCell>
        <mxCell id="BcOn8-lLCD1ZlD0IBxxJ-32" value="\(M_g\)" style="rounded=0;whiteSpace=wrap;html=1;" vertex="1" parent="1">
          <mxGeometry x="165" y="290" width="30" height="30" as="geometry" />
        </mxCell>
        <mxCell id="BcOn8-lLCD1ZlD0IBxxJ-33" value="" style="endArrow=classic;html=1;rounded=0;exitX=0.5;exitY=1;exitDx=0;exitDy=0;fillColor=#f8cecc;strokeColor=#b85450;" edge="1" parent="1">
          <mxGeometry width="50" height="50" relative="1" as="geometry">
            <mxPoint x="179.76" y="250" as="sourcePoint" />
            <mxPoint x="179.76" y="290" as="targetPoint" />
          </mxGeometry>
        </mxCell>
        <mxCell id="BcOn8-lLCD1ZlD0IBxxJ-75" style="edgeStyle=orthogonalEdgeStyle;rounded=0;orthogonalLoop=1;jettySize=auto;html=1;entryX=0;entryY=0.5;entryDx=0;entryDy=0;" edge="1" parent="1" source="BcOn8-lLCD1ZlD0IBxxJ-34" target="BcOn8-lLCD1ZlD0IBxxJ-72">
          <mxGeometry relative="1" as="geometry">
            <Array as="points">
              <mxPoint x="1080" y="305" />
              <mxPoint x="1080" y="125" />
            </Array>
          </mxGeometry>
        </mxCell>
        <mxCell id="BcOn8-lLCD1ZlD0IBxxJ-34" value="\(M_*\)" style="rounded=0;whiteSpace=wrap;html=1;" vertex="1" parent="1">
          <mxGeometry x="295" y="290" width="30" height="30" as="geometry" />
        </mxCell>
        <mxCell id="BcOn8-lLCD1ZlD0IBxxJ-35" value="" style="endArrow=classic;html=1;rounded=0;exitX=0.5;exitY=1;exitDx=0;exitDy=0;fillColor=#f8cecc;strokeColor=#b85450;" edge="1" parent="1">
          <mxGeometry width="50" height="50" relative="1" as="geometry">
            <mxPoint x="309.76" y="250" as="sourcePoint" />
            <mxPoint x="309.76" y="290" as="targetPoint" />
          </mxGeometry>
        </mxCell>
        <mxCell id="BcOn8-lLCD1ZlD0IBxxJ-44" value="&lt;b&gt;&lt;font style=&quot;font-size: 18px;&quot;&gt;Pathway:&lt;/font&gt;&lt;/b&gt; &lt;font face=&quot;Courier New&quot;&gt;spherical_dens_temp&lt;/font&gt;" style="text;html=1;align=center;verticalAlign=middle;whiteSpace=wrap;rounded=0;rotation=-90;fontFamily=Times New Roman;" vertex="1" parent="1">
          <mxGeometry x="-90" y="110" width="150" height="30" as="geometry" />
        </mxCell>
        <mxCell id="BcOn8-lLCD1ZlD0IBxxJ-45" value="" style="shape=curlyBracket;whiteSpace=wrap;html=1;rounded=1;labelPosition=left;verticalLabelPosition=middle;align=right;verticalAlign=middle;" vertex="1" parent="1">
          <mxGeometry x="10" y="65" width="20" height="120" as="geometry" />
        </mxCell>
        <mxCell id="BcOn8-lLCD1ZlD0IBxxJ-46" value="&lt;b&gt;&lt;font style=&quot;font-size: 18px;&quot;&gt;Fields&lt;/font&gt;&lt;/b&gt;&amp;nbsp;" style="text;html=1;align=center;verticalAlign=middle;whiteSpace=wrap;rounded=0;rotation=-90;fontFamily=Times New Roman;" vertex="1" parent="1">
          <mxGeometry x="-80" y="315" width="150" height="30" as="geometry" />
        </mxCell>
        <mxCell id="BcOn8-lLCD1ZlD0IBxxJ-47" value="" style="shape=curlyBracket;whiteSpace=wrap;html=1;rounded=1;labelPosition=left;verticalLabelPosition=middle;align=right;verticalAlign=middle;" vertex="1" parent="1">
          <mxGeometry x="10" y="200" width="20" height="260" as="geometry" />
        </mxCell>
        <mxCell id="BcOn8-lLCD1ZlD0IBxxJ-48" value="&lt;b&gt;Axes&lt;/b&gt;: \(\{r\}\)" style="text;html=1;align=center;verticalAlign=middle;whiteSpace=wrap;rounded=0;rotation=-90;" vertex="1" parent="1">
          <mxGeometry x="50" y="270" width="90" height="30" as="geometry" />
        </mxCell>
        <mxCell id="BcOn8-lLCD1ZlD0IBxxJ-49" value="" style="shape=curlyBracket;whiteSpace=wrap;html=1;rounded=1;labelPosition=left;verticalLabelPosition=middle;align=right;verticalAlign=middle;" vertex="1" parent="1">
          <mxGeometry x="120" y="215" width="20" height="140" as="geometry" />
        </mxCell>
        <mxCell id="BcOn8-lLCD1ZlD0IBxxJ-51" value="&lt;b&gt;Axes&lt;/b&gt;: \(\{r,\theta\}\)" style="text;html=1;align=center;verticalAlign=middle;whiteSpace=wrap;rounded=0;rotation=-90;" vertex="1" parent="1">
          <mxGeometry x="50" y="392.5" width="90" height="30" as="geometry" />
        </mxCell>
        <mxCell id="BcOn8-lLCD1ZlD0IBxxJ-52" value="" style="shape=curlyBracket;whiteSpace=wrap;html=1;rounded=1;labelPosition=left;verticalLabelPosition=middle;align=right;verticalAlign=middle;" vertex="1" parent="1">
          <mxGeometry x="120" y="375" width="20" height="65" as="geometry" />
        </mxCell>
        <mxCell id="BcOn8-lLCD1ZlD0IBxxJ-56" value="&lt;font face=&quot;Courier New&quot;&gt;&lt;span style=&quot;font-size: 10px;&quot;&gt;compute_tden_&lt;/span&gt;&lt;/font&gt;&lt;div&gt;&lt;font face=&quot;Courier New&quot;&gt;&lt;span style=&quot;font-size: 10px;&quot;&gt;from&lt;/span&gt;&lt;/font&gt;&lt;span style=&quot;font-size: 10px; font-family: &amp;quot;Courier New&amp;quot;; background-color: initial;&quot;&gt;_potential&lt;/span&gt;&lt;div&gt;&lt;div&gt;&lt;font face=&quot;Courier New&quot;&gt;&lt;span style=&quot;font-size: 10px;&quot;&gt;&lt;br&gt;&lt;/span&gt;&lt;/font&gt;&lt;/div&gt;&lt;div&gt;&lt;font face=&quot;Courier New&quot;&gt;&lt;span style=&quot;font-size: 10px;&quot;&gt;\(\nabla^2 \Phi = 4\pi G \rho\)&lt;/span&gt;&lt;/font&gt;&lt;/div&gt;&lt;/div&gt;&lt;/div&gt;" style="shape=process;whiteSpace=wrap;html=1;backgroundOutline=1;" vertex="1" parent="1">
          <mxGeometry x="640" y="70" width="110" height="110" as="geometry" />
        </mxCell>
        <mxCell id="BcOn8-lLCD1ZlD0IBxxJ-71" style="edgeStyle=orthogonalEdgeStyle;rounded=0;orthogonalLoop=1;jettySize=auto;html=1;entryX=0;entryY=0.75;entryDx=0;entryDy=0;" edge="1" parent="1" source="BcOn8-lLCD1ZlD0IBxxJ-59" target="BcOn8-lLCD1ZlD0IBxxJ-68">
          <mxGeometry relative="1" as="geometry">
            <Array as="points">
              <mxPoint x="920" y="395" />
              <mxPoint x="920" y="153" />
            </Array>
          </mxGeometry>
        </mxCell>
        <mxCell id="BcOn8-lLCD1ZlD0IBxxJ-59" value="\(\rho_{\rm dyn}\)" style="rounded=0;whiteSpace=wrap;html=1;" vertex="1" parent="1">
          <mxGeometry x="680" y="380" width="30" height="30" as="geometry" />
        </mxCell>
        <mxCell id="BcOn8-lLCD1ZlD0IBxxJ-60" value="" style="endArrow=classic;html=1;rounded=0;exitX=0.5;exitY=1;exitDx=0;exitDy=0;entryX=0.5;entryY=0;entryDx=0;entryDy=0;" edge="1" parent="1">
          <mxGeometry width="50" height="50" relative="1" as="geometry">
            <mxPoint x="694.6700000000001" y="180" as="sourcePoint" />
            <mxPoint x="694.9000000000001" y="380" as="targetPoint" />
          </mxGeometry>
        </mxCell>
        <mxCell id="BcOn8-lLCD1ZlD0IBxxJ-62" value="&lt;font face=&quot;Courier New&quot;&gt;&lt;span style=&quot;font-size: 10px;&quot;&gt;compute_total_&lt;/span&gt;&lt;/font&gt;&lt;div&gt;&lt;font face=&quot;Courier New&quot;&gt;&lt;span style=&quot;font-size: 10px;&quot;&gt;mass_gauss&lt;/span&gt;&lt;/font&gt;&lt;/div&gt;&lt;div&gt;&lt;font face=&quot;Courier New&quot;&gt;&lt;span style=&quot;font-size: 10px;&quot;&gt;&lt;br&gt;&lt;/span&gt;&lt;/font&gt;&lt;/div&gt;&lt;div&gt;&lt;font face=&quot;Courier New&quot;&gt;&lt;font style=&quot;font-size: 9px;&quot;&gt;(non-spherical&lt;/font&gt;&lt;span style=&quot;font-size: 10px;&quot;&gt;)&lt;/span&gt;&lt;/font&gt;&lt;/div&gt;" style="shape=process;whiteSpace=wrap;html=1;backgroundOutline=1;" vertex="1" parent="1">
          <mxGeometry x="780" y="70" width="110" height="110" as="geometry" />
        </mxCell>
        <mxCell id="BcOn8-lLCD1ZlD0IBxxJ-77" style="edgeStyle=orthogonalEdgeStyle;rounded=0;orthogonalLoop=1;jettySize=auto;html=1;entryX=0;entryY=0.75;entryDx=0;entryDy=0;" edge="1" parent="1" source="BcOn8-lLCD1ZlD0IBxxJ-63">
          <mxGeometry relative="1" as="geometry">
            <mxPoint x="1130" y="152.5" as="targetPoint" />
            <Array as="points">
              <mxPoint x="1120" y="235" />
              <mxPoint x="1120" y="153" />
            </Array>
          </mxGeometry>
        </mxCell>
        <mxCell id="BcOn8-lLCD1ZlD0IBxxJ-63" value="\(M_{\rm dyn}\)" style="rounded=0;whiteSpace=wrap;html=1;" vertex="1" parent="1">
          <mxGeometry x="815" y="220" width="40" height="30" as="geometry" />
        </mxCell>
        <mxCell id="BcOn8-lLCD1ZlD0IBxxJ-66" value="" style="endArrow=classic;html=1;rounded=0;exitX=0.5;exitY=1;exitDx=0;exitDy=0;entryX=0.5;entryY=0;entryDx=0;entryDy=0;" edge="1" parent="1">
          <mxGeometry width="50" height="50" relative="1" as="geometry">
            <mxPoint x="834.91" y="180" as="sourcePoint" />
            <mxPoint x="834.91" y="220" as="targetPoint" />
          </mxGeometry>
        </mxCell>
        <mxCell id="BcOn8-lLCD1ZlD0IBxxJ-67" style="edgeStyle=orthogonalEdgeStyle;rounded=0;orthogonalLoop=1;jettySize=auto;html=1;entryX=0.014;entryY=0.458;entryDx=0;entryDy=0;entryPerimeter=0;" edge="1" parent="1" target="BcOn8-lLCD1ZlD0IBxxJ-62">
          <mxGeometry relative="1" as="geometry">
            <mxPoint x="540" y="400" as="sourcePoint" />
            <mxPoint x="570" y="290" as="targetPoint" />
            <Array as="points">
              <mxPoint x="550" y="400" />
              <mxPoint x="550" y="190" />
              <mxPoint x="760" y="190" />
              <mxPoint x="760" y="120" />
            </Array>
          </mxGeometry>
        </mxCell>
        <mxCell id="BcOn8-lLCD1ZlD0IBxxJ-68" value="&lt;font face=&quot;Courier New&quot;&gt;&lt;span style=&quot;font-size: 10px;&quot;&gt;compute_missing&lt;/span&gt;&lt;/font&gt;&lt;div&gt;&lt;font face=&quot;Courier New&quot;&gt;&lt;span style=&quot;font-size: 10px;&quot;&gt;_density_field&lt;/span&gt;&lt;/font&gt;&lt;/div&gt;&lt;div&gt;&lt;font face=&quot;Courier New&quot;&gt;&lt;span style=&quot;font-size: 10px;&quot;&gt;&lt;br&gt;&lt;/span&gt;&lt;/font&gt;&lt;/div&gt;&lt;div&gt;&lt;font face=&quot;Courier New&quot;&gt;&lt;span style=&quot;font-size: 10px;&quot;&gt;\(\rho_{\rm dyn} = \rho_{\rm dm} + \rho_g + \rho_*\)&lt;/span&gt;&lt;/font&gt;&lt;/div&gt;" style="shape=process;whiteSpace=wrap;html=1;backgroundOutline=1;" vertex="1" parent="1">
          <mxGeometry x="940" y="70" width="120" height="110" as="geometry" />
        </mxCell>
        <mxCell id="BcOn8-lLCD1ZlD0IBxxJ-72" value="&lt;font face=&quot;Courier New&quot;&gt;&lt;span style=&quot;font-size: 10px;&quot;&gt;compute_missing&lt;/span&gt;&lt;/font&gt;&lt;div&gt;&lt;font face=&quot;Courier New&quot;&gt;&lt;span style=&quot;font-size: 10px;&quot;&gt;_mass_field&lt;/span&gt;&lt;/font&gt;&lt;/div&gt;&lt;div&gt;&lt;font face=&quot;Courier New&quot;&gt;&lt;span style=&quot;font-size: 10px;&quot;&gt;&lt;br&gt;&lt;/span&gt;&lt;/font&gt;&lt;/div&gt;&lt;div&gt;&lt;font face=&quot;Courier New&quot;&gt;&lt;span style=&quot;font-size: 10px;&quot;&gt;\(M_{\rm dyn} = M_{\rm dm} + M_g + M_*\)&lt;/span&gt;&lt;/font&gt;&lt;/div&gt;" style="shape=process;whiteSpace=wrap;html=1;backgroundOutline=1;" vertex="1" parent="1">
          <mxGeometry x="1100" y="70" width="140" height="110" as="geometry" />
        </mxCell>
        <mxCell id="BcOn8-lLCD1ZlD0IBxxJ-78" value="\(\rho_{\rm dm}\)" style="rounded=0;whiteSpace=wrap;html=1;" vertex="1" parent="1">
          <mxGeometry x="985" y="380" width="30" height="30" as="geometry" />
        </mxCell>
        <mxCell id="BcOn8-lLCD1ZlD0IBxxJ-79" value="" style="endArrow=classic;html=1;rounded=0;exitX=0.5;exitY=1;exitDx=0;exitDy=0;entryX=0.5;entryY=0;entryDx=0;entryDy=0;" edge="1" parent="1">
          <mxGeometry width="50" height="50" relative="1" as="geometry">
            <mxPoint x="999.6700000000001" y="180" as="sourcePoint" />
            <mxPoint x="999.9000000000001" y="380" as="targetPoint" />
          </mxGeometry>
        </mxCell>
        <mxCell id="BcOn8-lLCD1ZlD0IBxxJ-80" value="\(M_{\rm dm}\)" style="rounded=0;whiteSpace=wrap;html=1;" vertex="1" parent="1">
          <mxGeometry x="1150" y="220" width="40" height="30" as="geometry" />
        </mxCell>
        <mxCell id="BcOn8-lLCD1ZlD0IBxxJ-81" value="" style="endArrow=classic;html=1;rounded=0;exitX=0.5;exitY=1;exitDx=0;exitDy=0;entryX=0.5;entryY=0;entryDx=0;entryDy=0;" edge="1" parent="1">
          <mxGeometry width="50" height="50" relative="1" as="geometry">
            <mxPoint x="1169.9099999999999" y="180" as="sourcePoint" />
            <mxPoint x="1169.9099999999999" y="220" as="targetPoint" />
          </mxGeometry>
        </mxCell>
      </root>
    </mxGraphModel>
  </diagram>
</mxfile>
